#!OML:ASF H:\Pregnant\Project 1\Capture day 1\Session 1\femalepreg.ASF
:FULLY-SPECIFIED
:DEGREES
632
root 7.41765 15.7791 24.9979 26.7783 -85.6471 -8.89682
lowerback -17.2761 0.180211 0.303388
upperback -6.58784 -0.234959 1.29601
thorax 2.65075 -0.265983 1.14037
lowerneck -21.412 6.30309 7.85471
upperneck 24.3676 6.70564 -2.28591
head 11.9163 3.39609 -1.04971
rclavicle -2.28602e-015 3.18055e-015
rhumerus -40.6916 7.17622 -86.7034
rradius 29.676
rwrist -5.52881
rhand -20.4813 -17.757
rfingers 7.12502
rthumb 5.87519 -47.6555
lclavicle -2.28602e-015 3.18055e-015
lhumerus -38.8411 -19.7562 98.065
lradius 34.0616
lwrist 41.8791
lhand -28.967 -7.67658
lfingers 7.12502
lthumb -2.31982 22.2906
rfemur -26.3551 21.5827 11.7588
rtibia 26.8245
rfoot -13.6225 -23.194
rtoes -12.1086
lfemur 0 0 0
ltibia 0
lfoot 0 0
ltoes 0
633
root 7.42589 15.7799 24.9977 26.4593 -85.6368 -8.56479
lowerback -17.266 0.184359 0.321094
upperback -6.54366 -0.229608 1.2972
thorax 2.69221 -0.262253 1.13257
lowerneck -21.4457 6.26041 7.83528
upperneck 24.3918 6.63115 -2.22775
head 11.925 3.36826 -1.03688
rclavicle 1.66731e-014 -9.54166e-015
rhumerus -40.5553 7.47239 -86.8946
rradius 29.4742
rwrist -5.53358
rhand -20.4095 -17.7656
rfingers 7.12502
rthumb 5.94451 -47.6622
lclavicle 1.66731e-014 -9.54166e-015
lhumerus -38.8523 -20.0979 98.3357
lradius 33.9076
lwrist 41.7425
lhand -28.7161 -7.46708
lfingers 7.12502
lthumb -2.07756 22.5025
rfemur -26.4109 21.5695 11.7146
rtibia 26.8488
rfoot -13.6313 -23.1923
rtoes -12.0823
lfemur 0 0 0
ltibia 0
lfoot 0 0
ltoes 0
634
root 7.43368 15.7807 24.9966 26.1882 -85.6407 -8.28459
lowerback -17.2617 0.188055 0.321056
upperback -6.49705 -0.222441 1.30642
thorax 2.73929 -0.257352 1.14363
lowerneck -21.4728 6.2174 7.80797
upperneck 24.4162 6.56032 -2.17241
head 11.9325 3.341 -1.02338
rclavicle 1.98536e-014 -7.95139e-015
rhumerus -40.4245 7.82288 -87.1067
rradius 29.2832
rwrist -5.52503
rhand -20.3349 -17.7744
rfingers 7.12502
rthumb 6.0165 -47.669
lclavicle 1.98536e-014 -7.95139e-015
lhumerus -38.8797 -20.4565 98.6175
lradius 33.7732
lwrist 41.6086
lhand -28.3895 -7.29267
lfingers 7.12502
lthumb -1.76208 22.6798
rfemur -26.4657 21.5865 11.6697
rtibia 26.8751
rfoot -13.641 -23.2031
rtoes -12.0351
lfemur 0 0 0
ltibia 0
lfoot 0 0
ltoes 0
635
root 7.4413 15.7814 24.9951 25.9206 -85.6489 -8.01153
lowerback -17.26 0.188662 0.311413
upperback -6.449 -0.218037 1.32056
thorax 2.78934 -0.253684 1.16481
lowerneck -21.4923 6.17593 7.77873
upperneck 24.4398 6.49401 -2.12064
head 11.9386 3.31517 -1.0103
rclavicle -7.1811e-015 -5.56597e-015
rhumerus -40.3012 8.23268 -87.3465
rradius 29.1069
rwrist -5.51016
rhand -20.2528 -17.7832
rfingers 7.12502
rthumb 6.09576 -47.6755
lclavicle -7.1811e-015 -5.56597e-015
lhumerus -38.9216 -20.8242 98.9018
lradius 33.6618
lwrist 41.4972
lhand -27.983 -7.15919
lfingers 7.12502
lthumb -1.36948 22.8162
rfemur -26.5174 21.6288 11.6223
rtibia 26.9016
rfoot -13.6474 -23.2351
rtoes -11.9768
lfemur 0 0 0
ltibia 0
lfoot 0 0
ltoes 0
636
root 7.44879 15.782 24.9932 25.7025 -85.6604 -7.79013
lowerback -17.2614 0.187767 0.297206
upperback -6.39924 -0.215199 1.34073
thorax 2.84285 -0.250716 1.19464
lowerneck -21.5068 6.13514 7.73869
upperneck 24.4622 6.43206 -2.06609
head 11.943 3.29067 -0.993824
rclavicle 4.00054e-015 6.36111e-015
rhumerus -40.1868 8.70501 -87.6139
rradius 28.9507
rwrist -5.49453
rhand -20.1703 -17.7936
rfingers 7.12502
rthumb 6.17537 -47.6836
lclavicle 4.00054e-015 6.36111e-015
lhumerus -38.9776 -21.2084 99.1892
lradius 33.5824
lwrist 41.4387
lhand -27.5068 -7.07083
lfingers 7.12502
lthumb -0.909576 22.907
rfemur -26.5663 21.6903 11.5768
rtibia 26.9248
rfoot -13.646 -23.2838
rtoes -11.9237
lfemur 0 0 0
ltibia 0
lfoot 0 0
ltoes 0
637
root 7.4561 15.7826 24.991 25.5735 -85.6765 -7.65942
lowerback -17.269 0.18655 0.282969
upperback -6.34586 -0.213009 1.36487
thorax 2.90348 -0.248045 1.22857
lowerneck -21.5187 6.09656 7.69808
upperneck 24.4811 6.37415 -2.01309
head 11.9458 3.26776 -0.977203
rclavicle 2.19906e-014 5.96354e-015
rhumerus -40.0804 9.23827 -87.9119
rradius 28.8192
rwrist -5.47932
rhand -20.0967 -17.8253
rfingers 7.12502
rthumb 6.24644 -47.7132
lclavicle 2.19906e-014 5.96354e-015
lhumerus -39.0414 -21.6003 99.4683
lradius 33.5356
lwrist 41.4358
lhand -26.9644 -7.0012
lfingers 7.12502
lthumb -0.385687 22.9782
rfemur -26.6118 21.7623 11.5372
rtibia 26.9423
rfoot -13.6419 -23.3359
rtoes -11.8546
lfemur 0 0 0
ltibia 0
lfoot 0 0
ltoes 0
638
root 7.46337 15.783 24.9884 25.5436 -85.6913 -7.63321
lowerback -17.271 0.185351 0.275481
upperback -6.29241 -0.211772 1.38845
thorax 2.96125 -0.245913 1.2579
lowerneck -21.5284 6.06031 7.66063
upperneck 24.5007 6.31742 -1.95628
head 11.9486 3.24618 -0.959496
rclavicle 7.90169e-015 -7.55382e-015
rhumerus -39.9873 9.80627 -88.2359
rradius 28.7138
rwrist -5.44388
rhand -19.9988 -17.8633
rfingers 7.12502
rthumb 6.34099 -47.7484
lclavicle 7.90169e-015 -7.55382e-015
lhumerus -39.1456 -22.0527 99.7536
lradius 33.5571
lwrist 41.5361
lhand -26.3624 -6.91535
lfingers 7.12502
lthumb 0.195755 23.0643
rfemur -26.6477 21.8486 11.5071
rtibia 26.9526
rfoot -13.6364 -23.3999
rtoes -11.7905
lfemur 0 0 0
ltibia 0
lfoot 0 0
ltoes 0
639
root 7.47061 15.7834 24.9858 25.6039 -85.7021 -7.69962
lowerback -17.2748 0.185295 0.275987
upperback -6.23552 -0.210291 1.4127
thorax 3.02364 -0.243688 1.28348
lowerneck -21.5431 6.02453 7.62625
upperneck 24.5206 6.26065 -1.90206
head 11.9528 3.22452 -0.943118
rclavicle 1.26725e-015 1.43125e-014
rhumerus -39.9049 10.411 -88.5773
rradius 28.6431
rwrist -5.39966
rhand -19.8489 -17.9022
rfingers 7.12502
rthumb 6.48568 -47.7829
lclavicle 1.26725e-015 1.43125e-014
lhumerus -39.263 -22.5304 100.033
lradius 33.6214
lwrist 41.6993
lhand -25.7281 -6.80894
lfingers 7.12502
lthumb 0.808315 23.1693
rfemur -26.6763 21.9247 11.4896
rtibia 26.9557
rfoot -13.6261 -23.4555
rtoes -11.7362
lfemur 0 0 0
ltibia 0
lfoot 0 0
ltoes 0
640
root 7.47788 15.7839 24.9834 25.6949 -85.7064 -7.79591
lowerback -17.2837 0.183752 0.282638
upperback -6.1759 -0.211884 1.4383
thorax 3.09165 -0.243024 1.30642
lowerneck -21.5614 5.99063 7.59041
upperneck 24.5395 6.20758 -1.85037
head 11.9576 3.20402 -0.926716
rclavicle -6.11263e-015 4.77083e-015
rhumerus -39.8302 11.0373 -88.9222
rradius 28.606
rwrist -5.33246
rhand -19.6531 -17.9594
rfingers 7.12502
rthumb 6.6747 -47.8342
lclavicle -6.11263e-015 4.77083e-015
lhumerus -39.3821 -23.009 100.298
lradius 33.7159
lwrist 41.8974
lhand -25.0623 -6.6673
lfingers 7.12502
lthumb 1.45137 23.3075
rfemur -26.7014 21.9853 11.4788
rtibia 26.9535
rfoot -13.6129 -23.5027
rtoes -11.6878
lfemur 0 0 0
ltibia 0
lfoot 0 0
ltoes 0
641
root 7.48536 15.7843 24.9815 25.7736 -85.701 -7.87979
lowerback -17.2934 0.182676 0.299294
upperback -6.11482 -0.214306 1.46027
thorax 3.16164 -0.242847 1.31971
lowerneck -21.5842 5.95624 7.55463
upperneck 24.558 6.15365 -1.79931
head 11.9631 3.18305 -0.910591
rclavicle 1.00262e-014 -1.70955e-014
rhumerus -39.7675 11.6747 -89.269
rradius 28.6082
rwrist -5.24448
rhand -19.3572 -18.0008
rfingers 7.12502
rthumb 6.96034 -47.8664
lclavicle 1.00262e-014 -1.70955e-014
lhumerus -39.5 -23.488 100.548
lradius 33.8338
lwrist 42.1282
lhand -24.4168 -6.50644
lfingers 7.12502
lthumb 2.07484 23.4632
rfemur -26.7235 22.0248 11.4723
rtibia 26.9485
rfoot -13.5991 -23.5387
rtoes -11.6372
lfemur 0 0 0
ltibia 0
lfoot 0 0
ltoes 0
642
root 7.49314 15.7847 24.9802 25.8081 -85.6867 -7.91589
lowerback -17.3055 0.179845 0.323652
upperback -6.05484 -0.220431 1.48127
thorax 3.23176 -0.244607 1.32691
lowerneck -21.6074 5.92232 7.51436
upperneck 24.5762 6.10253 -1.75009
head 11.9687 3.16267 -0.89393
rclavicle 2.26118e-015 -9.54166e-015
rhumerus -39.718 12.3192 -89.6095
rradius 28.649
rwrist -5.13595
rhand -19.0158 -18.0713
rfingers 7.12502
rthumb 7.28993 -47.9257
lclavicle 2.26118e-015 -9.54166e-015
lhumerus -39.6072 -23.9407 100.776
lradius 33.9614
lwrist 42.3705
lhand -23.819 -6.35144
lfingers 7.12502
lthumb 2.65214 23.6118
rfemur -26.7485 22.0487 11.4634
rtibia 26.943
rfoot -13.5836 -23.5698
rtoes -11.5761
lfemur 0 0 0
ltibia 0
lfoot 0 0
ltoes 0
643
root 7.5012 15.785 24.9794 25.7853 -85.6632 -7.89211
lowerback -17.3178 0.175233 0.35468
upperback -5.99705 -0.230098 1.50081
thorax 3.29982 -0.248214 1.32807
lowerneck -21.6252 5.88848 7.47052
upperneck 24.5906 6.05399 -1.70325
head 11.9718 3.14283 -0.877286
rclavicle -1.84124e-014 -1.98785e-014
rhumerus -39.6854 12.9683 -89.9438
rradius 28.7306
rwrist -5.01485
rhand -18.6418 -18.1766
rfingers 7.12502
rthumb 7.65086 -48.0182
lclavicle -1.84124e-014 -1.98785e-014
lhumerus -39.708 -24.3756 100.987
lradius 34.1006
lwrist 42.6365
lhand -23.3045 -6.22096
lfingers 7.12502
lthumb 3.149 23.7355
rfemur -26.7759 22.0506 11.4529
rtibia 26.939
rfoot -13.5701 -23.589
rtoes -11.517
lfemur 0 0 0
ltibia 0
lfoot 0 0
ltoes 0
644
root 7.5094 15.7853 24.979 25.7282 -85.6346 -7.83115
lowerback -17.3325 0.170885 0.389033
upperback -5.94161 -0.240102 1.51832
thorax 3.36657 -0.252068 1.32515
lowerneck -21.6354 5.8536 7.4244
upperneck 24.6009 6.00531 -1.65612
head 11.9719 3.12281 -0.860396
rclavicle -6.68413e-015 2.38542e-014
rhumerus -39.6718 13.6158 -90.2709
rradius 28.8534
rwrist -4.88711
rhand -18.2542 -18.311
rfingers 7.12502
rthumb 8.02503 -48.1386
lclavicle -6.68413e-015 2.38542e-014
lhumerus -39.803 -24.7966 101.182
lradius 34.2488
lwrist 42.921
lhand -22.9051 -6.13635
lfingers 7.12502
lthumb 3.53477 23.8141
rfemur -26.8068 22.0427 11.4393
rtibia 26.9369
rfoot -13.5611 -23.6022
rtoes -11.4489
lfemur 0 0 0
ltibia 0
lfoot 0 0
ltoes 0
645
root 7.51742 15.7856 24.9787 25.6513 -85.6079 -7.75042
lowerback -17.3499 0.168223 0.422183
upperback -5.88811 -0.247882 1.5348
thorax 3.43268 -0.254865 1.32226
lowerneck -21.6363 5.81718 7.37837
upperneck 24.6081 5.95607 -1.6122
head 11.969 3.10217 -0.845062
rclavicle -5.2181e-016 3.97569e-015
rhumerus -39.6743 14.2472 -90.582
rradius 29.0076
rwrist -4.74742
rhand -17.8698 -18.4682
rfingers 7.12502
rthumb 8.39603 -48.2813
lclavicle -5.2181e-016 3.97569e-015
lhumerus -39.8938 -25.2005 101.362
lradius 34.4032
lwrist 43.2153
lhand -22.6628 -6.10773
lfingers 7.12502
lthumb 3.76875 23.8387
rfemur -26.8385 22.0274 11.4249
rtibia 26.937
rfoot -13.553 -23.6076
rtoes -11.3929
lfemur 0 0 0
ltibia 0
lfoot 0 0
ltoes 0
646
root 7.52515 15.7858 24.9782 25.5805 -85.5834 -7.67761
lowerback -17.3698 0.165442 0.451012
upperback -5.83594 -0.255386 1.55267
thorax 3.49867 -0.257532 1.32335
lowerneck -21.627 5.78062 7.33045
upperneck 24.614 5.90802 -1.56805
head 11.9636 3.08194 -0.829381
rclavicle -2.77056e-015 6.36111e-015
rhumerus -39.6847 14.8481 -90.8696
rradius 29.18
rwrist -4.58821
rhand -17.5228 -18.6469
rfingers 7.12502
rthumb 8.73086 -48.4463
lclavicle -2.77056e-015 6.36111e-015
lhumerus -39.9776 -25.5774 101.525
lradius 34.5596
lwrist 43.4998
lhand -22.5685 -6.12273
lfingers 7.12502
lthumb 3.8598 23.8221
rfemur -26.8681 22.0116 11.4128
rtibia 26.939
rfoot -13.5471 -23.6117
rtoes -11.3471
lfemur 0 0 0
ltibia 0
lfoot 0 0
ltoes 0
